<svg width="28" height="34" viewBox="0 0 28 34" fill="none" xmlns="http://www.w3.org/2000/svg">
<path d="M8.7017 11.5918L8.69833 11.5945L8.69512 11.5977L8.7017 11.5918ZM23.6329 11.312C23.5285 11.2114 23.4127 11.1234 23.2879 11.0498C23.1111 10.9458 22.915 10.8791 22.7115 10.854C22.508 10.8288 22.3014 10.8456 22.1047 10.9034C21.908 10.9612 21.7252 11.0588 21.5676 11.19C21.4101 11.3213 21.2811 11.4834 21.1888 11.6665C20.672 12.6845 19.9594 13.5905 19.0918 14.3325C19.2244 13.5849 19.2913 12.8271 19.2917 12.0679C19.2945 9.75801 18.6851 7.48867 17.5257 5.4909C16.3662 3.49313 14.6981 1.83829 12.6911 0.694855C12.47 0.569526 12.2207 0.50242 11.9666 0.499834C11.7125 0.497247 11.4618 0.559265 11.2383 0.680068C11.0147 0.800871 10.8254 0.976499 10.6883 1.19047C10.5512 1.40444 10.4707 1.64975 10.4543 1.90336C10.3704 3.32562 9.99855 4.71604 9.36139 5.99036C8.72423 7.26468 7.83499 8.39639 6.74755 9.3169L6.40184 9.59815C5.26471 10.3633 4.25818 11.3065 3.42089 12.3916C2.11936 14.0313 1.21776 15.9516 0.787576 18.0004C0.357394 20.0491 0.410466 22.1699 0.942584 24.1946C1.4747 26.2193 2.47123 28.0921 3.85314 29.6646C5.23505 31.2371 6.96434 32.4661 8.90386 33.2539C9.13158 33.347 9.37871 33.3826 9.62344 33.3575C9.86817 33.3325 10.103 33.2476 10.3072 33.1104C10.5113 32.9732 10.6786 32.7878 10.7942 32.5707C10.9098 32.3535 10.9702 32.1112 10.97 31.8652C10.969 31.7061 10.9438 31.5481 10.8953 31.3965C10.5598 30.135 10.4631 28.8219 10.6104 27.5249C12.0298 30.202 14.3081 32.324 17.0792 33.5498C17.4174 33.7011 17.7998 33.7215 18.1522 33.6069C20.3415 32.9003 22.3138 31.6456 23.8817 29.962C25.4495 28.2784 26.5608 26.2219 27.11 23.9879C27.6592 21.7539 27.628 19.4165 27.0194 17.1979C26.4108 14.9793 25.2451 12.9532 23.6329 11.312V11.312ZM17.7757 30.5586C16.4682 29.8959 15.3147 28.9655 14.3904 27.8278C13.4661 26.6901 12.7916 25.3706 12.4107 23.9551C12.2944 23.4785 12.2044 22.9958 12.1412 22.5093C12.0983 22.1995 11.9597 21.9108 11.7447 21.6836C11.5298 21.4564 11.2492 21.3021 10.9422 21.2422C10.8476 21.2235 10.7514 21.2142 10.655 21.2144C10.3914 21.2143 10.1324 21.2837 9.90416 21.4156C9.67591 21.5476 9.48649 21.7374 9.355 21.9659C8.1104 24.1125 7.48449 26.5619 7.54664 29.0425C6.452 28.1914 5.53717 27.1315 4.85516 25.9243C4.17315 24.7171 3.73753 23.3864 3.57355 22.0096C3.40957 20.6328 3.52049 19.2371 3.89987 17.9034C4.27926 16.5697 4.91958 15.3246 5.78371 14.2403C6.43983 13.388 7.23134 12.6492 8.12671 12.0533C8.16547 12.0283 8.20266 12.0009 8.23804 11.9712C8.23804 11.9712 8.68307 11.603 8.69828 11.5946C10.8353 9.78703 12.3553 7.35786 13.0464 4.64556C14.6807 6.1564 15.7705 8.1646 16.1465 10.3583C16.5225 12.552 16.1637 14.8085 15.1257 16.7774C14.9886 17.0401 14.9324 17.3376 14.9641 17.6322C14.9958 17.9269 15.1141 18.2055 15.304 18.4331C15.4939 18.6606 15.7469 18.8268 16.0312 18.9106C16.3154 18.9945 16.6181 18.9924 16.9011 18.9044C19.1988 18.1841 21.2207 16.7773 22.6946 14.8731C23.5804 16.1816 24.1595 17.6731 24.3888 19.2364C24.6181 20.7998 24.4916 22.3948 24.0188 23.9025C23.546 25.4102 22.7391 26.7917 21.6581 27.9442C20.5771 29.0967 19.25 29.9904 17.7756 30.5586L17.7757 30.5586Z" fill="#7EE8FF"/>
</svg>
