<svg width="30" height="30" viewBox="0 0 30 30" fill="none" xmlns="http://www.w3.org/2000/svg">
<path d="M20.565 6.435L12.615 14.385L9.435 11.205C9.30053 11.048 9.13505 10.9204 8.94896 10.8304C8.76286 10.7404 8.56016 10.6898 8.35358 10.6818C8.147 10.6738 7.941 10.7086 7.74852 10.784C7.55603 10.8595 7.38121 10.9738 7.23502 11.12C7.08884 11.2662 6.97446 11.441 6.89904 11.6335C6.82363 11.826 6.78882 12.032 6.7968 12.2386C6.80478 12.4452 6.85538 12.6479 6.94541 12.834C7.03545 13.0201 7.16298 13.1855 7.32 13.32L11.565 17.565C11.8444 17.8421 12.2215 17.9983 12.615 18C12.8124 18.0011 13.0081 17.9633 13.1909 17.8887C13.3736 17.814 13.5398 17.704 13.68 17.565L22.68 8.565C22.8206 8.42556 22.9322 8.25965 23.0083 8.07686C23.0845 7.89408 23.1237 7.69802 23.1237 7.5C23.1237 7.30198 23.0845 7.10592 23.0083 6.92313C22.9322 6.74035 22.8206 6.57444 22.68 6.435C22.399 6.15562 22.0188 5.99881 21.6225 5.99881C21.2262 5.99881 20.846 6.15562 20.565 6.435V6.435ZM25.5 0H4.5C3.30653 0 2.16193 0.474106 1.31802 1.31802C0.474106 2.16193 0 3.30653 0 4.5V19.5C0 20.6935 0.474106 21.8381 1.31802 22.682C2.16193 23.5259 3.30653 24 4.5 24H21.885L27.435 29.565C27.5752 29.704 27.7414 29.814 27.9241 29.8887C28.1069 29.9633 28.3026 30.0011 28.5 30C28.6968 30.0051 28.892 29.964 29.07 29.88C29.3439 29.7675 29.5784 29.5764 29.7439 29.3308C29.9094 29.0852 29.9985 28.7961 30 28.5V4.5C30 3.30653 29.5259 2.16193 28.682 1.31802C27.8381 0.474106 26.6935 0 25.5 0ZM27 24.885L23.565 21.435C23.4248 21.296 23.2586 21.186 23.0759 21.1113C22.8931 21.0367 22.6974 20.9989 22.5 21H4.5C4.10218 21 3.72064 20.842 3.43934 20.5607C3.15804 20.2794 3 19.8978 3 19.5V4.5C3 4.10217 3.15804 3.72064 3.43934 3.43934C3.72064 3.15804 4.10218 3 4.5 3H25.5C25.8978 3 26.2794 3.15804 26.5607 3.43934C26.842 3.72064 27 4.10217 27 4.5V24.885Z" fill="#7EE8FF"/>
</svg>
