<svg width="30" height="30" viewBox="0 0 30 30" fill="none" xmlns="http://www.w3.org/2000/svg">
<path d="M12.315 19.125C12.4544 19.2656 12.6203 19.3772 12.8031 19.4533C12.9859 19.5295 13.182 19.5687 13.38 19.5687C13.578 19.5687 13.7741 19.5295 13.9569 19.4533C14.1397 19.3772 14.3056 19.2656 14.445 19.125L20.565 13.005C20.8475 12.7225 21.0061 12.3395 21.0061 11.94C21.0061 11.5405 20.8475 11.1575 20.565 10.875C20.2825 10.5925 19.8995 10.4339 19.5 10.4339C19.1005 10.4339 18.7175 10.5925 18.435 10.875L13.38 15.945L11.565 14.115C11.2825 13.8325 10.8995 13.6739 10.5 13.6739C10.1005 13.6739 9.71746 13.8325 9.435 14.115C9.15254 14.3975 8.99386 14.7805 8.99386 15.18C8.99386 15.5795 9.15254 15.9625 9.435 16.245L12.315 19.125ZM28.5 0H1.5C1.10218 0 0.720644 0.158035 0.43934 0.43934C0.158035 0.720644 0 1.10218 0 1.5V28.5C0 28.8978 0.158035 29.2794 0.43934 29.5607C0.720644 29.842 1.10218 30 1.5 30H28.5C28.8978 30 29.2794 29.842 29.5607 29.5607C29.842 29.2794 30 28.8978 30 28.5V1.5C30 1.10218 29.842 0.720644 29.5607 0.43934C29.2794 0.158035 28.8978 0 28.5 0ZM27 27H3V3H27V27Z" fill="#7EE8FF"/>
</svg>
