<svg width="30" height="30" viewBox="0 0 30 30" fill="none" xmlns="http://www.w3.org/2000/svg">
<path d="M21 12.405L13.5 8.07C13.0442 7.80683 12.5271 7.66821 12.0008 7.66808C11.4744 7.66794 10.9573 7.80629 10.5013 8.06923C10.0454 8.33217 9.66661 8.71045 9.40308 9.16608C9.13956 9.62171 9.00055 10.1386 9.00001 10.665V19.335C9.00055 19.8611 9.13942 20.3778 9.4027 20.8333C9.66598 21.2887 10.0444 21.667 10.5 21.93C10.9561 22.1933 11.4734 22.3319 12 22.3319C12.5266 22.3319 13.044 22.1933 13.5 21.93L21 17.595C21.4546 17.3313 21.832 16.9528 22.0943 16.4973C22.3566 16.0419 22.4947 15.5256 22.4947 15C22.4947 14.4744 22.3566 13.9581 22.0943 13.5027C21.832 13.0472 21.4546 12.6687 21 12.405ZM19.5 15L12 19.335V10.665L19.5 15ZM15 0C12.0333 0 9.13319 0.879735 6.66645 2.52796C4.19972 4.17618 2.27713 6.51886 1.14181 9.25975C0.00649926 12.0006 -0.290551 15.0166 0.288228 17.9264C0.867006 20.8361 2.29562 23.5088 4.39341 25.6066C6.49119 27.7044 9.16394 29.133 12.0737 29.7118C14.9834 30.2906 17.9994 29.9935 20.7403 28.8582C23.4812 27.7229 25.8238 25.8003 27.4721 23.3336C29.1203 20.8668 30 17.9667 30 15C30 13.0302 29.612 11.0796 28.8582 9.25975C28.1044 7.43986 26.9995 5.78628 25.6066 4.3934C24.2137 3.00052 22.5601 1.89563 20.7403 1.14181C18.9204 0.387987 16.9698 0 15 0ZM15 27C12.6266 27 10.3066 26.2962 8.33316 24.9776C6.35977 23.6591 4.8217 21.7849 3.91345 19.5922C3.0052 17.3995 2.76756 14.9867 3.23058 12.6589C3.69361 10.3311 4.8365 8.19295 6.51473 6.51472C8.19296 4.83649 10.3312 3.6936 12.6589 3.23058C14.9867 2.76755 17.3995 3.00519 19.5922 3.91345C21.7849 4.8217 23.6591 6.35977 24.9776 8.33316C26.2962 10.3065 27 12.6266 27 15C27 18.1826 25.7357 21.2348 23.4853 23.4853C21.2349 25.7357 18.1826 27 15 27Z" fill="#7EE8FF"/>
</svg>
