<svg width="32" height="30" viewBox="0 0 32 30" fill="none" xmlns="http://www.w3.org/2000/svg">
<path d="M27.5195 7.32015C25.991 6.51683 24.2086 6.34451 22.5545 6.84016C22.474 5.15786 21.749 3.57111 20.5299 2.40901C19.3109 1.24691 17.6913 0.598633 16.007 0.598633C14.3228 0.598633 12.7032 1.24691 11.4841 2.40901C10.2651 3.57111 9.54008 5.15786 9.45953 6.84016C7.80996 6.34337 6.03259 6.49909 4.49453 7.27516C3.36187 7.87048 2.42822 8.7843 1.80872 9.90392C1.18922 11.0235 0.910948 12.3 1.00823 13.5759C1.10552 14.8517 1.5741 16.0713 2.3562 17.084C3.1383 18.0967 4.19971 18.8584 5.40953 19.2752C4.63731 20.374 4.21868 21.6822 4.20953 23.0252C4.2162 23.4023 4.25129 23.7783 4.31453 24.1502C4.56714 25.6735 5.35299 27.0574 6.53175 28.0548C7.7105 29.0522 9.20542 29.5982 10.7495 29.5952C11.0692 29.6171 11.3899 29.6171 11.7095 29.5952C13.4241 29.3251 14.9643 28.3934 15.9995 27.0002C17.0455 28.3708 18.5843 29.2801 20.2895 29.5352C20.6092 29.5571 20.9299 29.5571 21.2495 29.5352C22.4468 29.5338 23.6206 29.2038 24.6432 28.5812C25.6658 27.9585 26.4978 27.0671 27.0487 26.0042C27.5995 24.9412 27.848 23.7474 27.767 22.5529C27.686 21.3584 27.2788 20.2091 26.5895 19.2302C27.8053 18.8206 28.8737 18.0626 29.6619 17.0505C30.4501 16.0383 30.9232 14.8167 31.0223 13.5377C31.1214 12.2586 30.8422 10.9787 30.2194 9.85719C29.5966 8.73567 28.6577 7.82209 27.5195 7.23016V7.32015ZM13.5095 4.41015C14.1796 3.76839 15.0717 3.41014 15.9995 3.41014C16.9274 3.41014 17.8194 3.76839 18.4895 4.41015C19.0011 4.92254 19.3486 5.57568 19.4875 6.28631C19.6264 6.99693 19.5505 7.73283 19.2695 8.40016L18.8795 9.28515L17.8895 10.1552C17.2809 9.94623 16.643 9.83486 15.9995 9.82516C15.1679 9.82595 14.3455 9.99962 13.5845 10.3352L12.7445 8.40016C12.4534 7.73577 12.3707 6.99871 12.5073 6.28633C12.6439 5.57395 12.9933 4.91975 13.5095 4.41015ZM4.35953 14.6702C4.02467 13.9333 3.95127 13.1042 4.15146 12.32C4.35166 11.5358 4.81347 10.8434 5.46054 10.3572C6.10762 9.871 6.90123 9.62018 7.71018 9.64617C8.51914 9.67217 9.295 9.97343 9.90953 10.5002L10.6445 11.1452L11.1695 12.3452C10.4181 13.3505 10.0081 14.57 9.99953 15.8252C9.98174 16.0498 9.98174 16.2755 9.99953 16.5002H9.17453L7.91453 16.6202C7.19385 16.6962 6.46714 16.5502 5.83177 16.2017C5.19639 15.8532 4.68271 15.3188 4.35953 14.6702ZM14.2595 23.7902C14.079 24.5909 13.6279 25.305 12.9825 25.8121C12.337 26.3192 11.5364 26.5884 10.7157 26.5743C9.89496 26.5602 9.10415 26.2637 8.47645 25.7347C7.84875 25.2058 7.42252 24.4766 7.26953 23.6702C7.25515 23.4604 7.25515 23.2499 7.26953 23.0402C7.27497 22.4305 7.43981 21.8328 7.74768 21.3065C8.05555 20.7803 8.49574 20.3437 9.02453 20.0402L9.78953 19.5002L11.1545 19.3502C12.0149 20.547 13.2857 21.3853 14.7245 21.7052L14.2595 23.7902ZM15.9995 18.8252C15.4062 18.8252 14.8262 18.6492 14.3328 18.3196C13.8395 17.9899 13.455 17.5214 13.2279 16.9732C13.0008 16.425 12.9414 15.8218 13.0572 15.2399C13.1729 14.6579 13.4587 14.1234 13.8782 13.7038C14.2978 13.2843 14.8323 12.9986 15.4143 12.8828C15.9962 12.767 16.5994 12.8265 17.1476 13.0535C17.6958 13.2806 18.1643 13.6651 18.4939 14.1584C18.8236 14.6518 18.9995 15.2318 18.9995 15.8252C18.9995 16.6208 18.6835 17.3839 18.1209 17.9465C17.5582 18.5091 16.7952 18.8252 15.9995 18.8252ZM24.7295 23.6552C24.5748 24.5704 24.0667 25.3882 23.3148 25.9325C22.5629 26.4768 21.6273 26.704 20.7095 26.5652C19.9864 26.4632 19.3115 26.1429 18.7754 25.647C18.2393 25.1511 17.8674 24.5032 17.7095 23.7902L17.4995 22.8902L17.8145 21.5102C19.1983 21.0595 20.3711 20.1212 21.1145 18.8702L21.8645 19.3202H21.9995L22.9895 19.9052C23.6328 20.2725 24.1458 20.8308 24.4576 21.5027C24.7693 22.1746 24.8644 22.9268 24.7295 23.6552ZM27.6395 14.6552C27.3445 15.2514 26.8894 15.7537 26.3252 16.1061C25.7609 16.4584 25.1097 16.6468 24.4445 16.6502H24.0845L23.1245 16.5002L21.9995 15.8852C21.9974 14.4267 21.4642 13.019 20.4995 11.9252L21.1445 11.3702L22.0895 10.5002C22.7058 9.95227 23.4934 9.63566 24.3174 9.60455C25.1414 9.57344 25.9506 9.82975 26.6065 10.3296C27.2623 10.8295 27.724 11.5418 27.9125 12.3446C28.1009 13.1473 28.0044 13.9907 27.6395 14.7302V14.6552Z" fill="#7EE8FF"/>
</svg>
