<svg width="31" height="30" viewBox="0 0 31 30" fill="none" xmlns="http://www.w3.org/2000/svg">
<path d="M29.235 4.09498L22.5 0.254978C22.272 0.123326 22.0133 0.0540161 21.75 0.0540161C21.4867 0.0540161 21.228 0.123326 21 0.254978L15 3.67498L9 0.254978C8.77197 0.123326 8.5133 0.0540161 8.25 0.0540161C7.98669 0.0540161 7.72803 0.123326 7.5 0.254978L0.765 4.09498C0.533301 4.22522 0.340368 4.41468 0.205951 4.64398C0.0715332 4.87328 0.000458035 5.13418 0 5.39998V13.08C0.000458035 13.3458 0.0715332 13.6067 0.205951 13.836C0.340368 14.0653 0.533301 14.2547 0.765 14.385L6.765 17.79V24.6C6.76546 24.8658 6.83653 25.1267 6.97095 25.356C7.10537 25.5853 7.2983 25.7747 7.53 25.905L14.28 29.745C14.508 29.8766 14.7667 29.9459 15.03 29.9459C15.2933 29.9459 15.552 29.8766 15.78 29.745L22.5 25.905C22.7317 25.7747 22.9246 25.5853 23.059 25.356C23.1935 25.1267 23.2645 24.8658 23.265 24.6V17.79L29.265 14.385C29.4967 14.2547 29.6896 14.0653 29.824 13.836C29.9585 13.6067 30.0295 13.3458 30.03 13.08V5.39998C30.0266 5.13118 29.951 4.86823 29.8111 4.63865C29.6713 4.40908 29.4723 4.2213 29.235 4.09498ZM3 12.21V6.20998L8.25 3.20998L13.5 6.20998V12.21L8.25 15.21L3 12.21ZM20.25 23.73L15 26.73L9.75 23.73V17.73L15 14.73L20.25 17.73V23.73ZM27 12.21L21.75 15.21L16.5 12.21V6.20998L21.75 3.20998L27 6.20998V12.21Z" fill="#7EE8FF"/>
</svg>
