<svg width="24" height="25" viewBox="0 0 24 25" fill="none" xmlns="http://www.w3.org/2000/svg">
<circle cx="12" cy="12.3105" r="12" fill="#963ECD"/>
<path d="M16.2903 5.31055H7.70968C6.2043 5.31055 5 6.51485 5 8.02022V10.8804V16.6009C5 18.1062 6.2043 19.3105 7.70968 19.3105H16.2903C17.7957 19.3105 19 18.1062 19 16.6009V10.8804V8.02022C19 6.51485 17.7957 5.31055 16.2903 5.31055ZM17.0932 6.91628H17.3943V7.21736V9.2747L15.0358 9.32488V6.96646L17.0932 6.91628ZM10.0179 10.8804C10.4695 10.2783 11.172 9.87686 12.0251 9.87686C12.8781 9.87686 13.5806 10.2783 14.0323 10.8804C14.3333 11.2819 14.4839 11.7837 14.4839 12.3356C14.4839 13.6905 13.3799 14.7944 12.0251 14.7944C10.6703 14.7944 9.51613 13.6905 9.51613 12.3356C9.51613 11.7837 9.71685 11.2819 10.0179 10.8804ZM17.6452 16.6009C17.6452 17.3536 17.043 17.9557 16.2903 17.9557H7.70968C6.95699 17.9557 6.35484 17.3536 6.35484 16.6009V10.8804H8.46237C8.26165 11.3321 8.16129 11.7837 8.16129 12.3356C8.16129 14.4432 9.86738 16.1493 11.9749 16.1493C14.0824 16.1493 15.7885 14.4432 15.7885 12.3356C15.7885 11.8338 15.6882 11.3321 15.4875 10.8804H17.595V16.6009H17.6452Z" fill="white"/>
</svg>
