<svg width="200" height="45" viewBox="0 0 200 45" fill="none" xmlns="http://www.w3.org/2000/svg">
<path d="M45.2879 34.9026C49.8408 34.9026 53.4797 33.079 55.3422 29.8876C55.5837 29.4824 55.4284 28.9589 54.9973 28.7225L51.2032 26.6962C50.8066 26.4936 50.3237 26.6118 50.0822 26.9664C48.8405 28.7056 47.1505 29.4655 45.2534 29.4655C41.8215 29.4655 39.1311 27.1353 39.1311 23.1334C39.1311 19.1315 41.8215 16.8013 45.2534 16.8013C47.1505 16.8013 48.8578 17.578 50.0822 19.3004C50.3409 19.655 50.8066 19.7732 51.2032 19.5705L55.0145 17.578C55.4457 17.3585 55.6009 16.8351 55.3595 16.4298C53.5142 13.1709 49.858 11.381 45.3052 11.381C37.717 11.381 32.3018 16.261 32.3018 23.1503C32.2846 30.0227 37.6997 34.9026 45.2879 34.9026Z" fill="white"/>
<path d="M64.224 14.741V12.5628C64.224 12.09 63.8446 11.7185 63.3617 11.7185H58.6191C58.1362 11.7185 57.7568 12.09 57.7568 12.5628V33.7204C57.7568 34.1932 58.1362 34.5647 58.6191 34.5647H63.6549C64.1378 34.5647 64.5172 34.1932 64.5172 33.7204V23.7748C64.5172 19.4015 66.9834 17.409 70.7257 17.409C70.9327 17.409 71.1396 17.409 71.3293 17.4258C71.8294 17.4596 72.2433 17.0712 72.2433 16.5816V12.2589C72.2433 11.7692 71.8294 11.3808 71.3293 11.4146C68.1733 11.5834 65.7244 12.7148 64.224 14.741Z" fill="white"/>
<path d="M85.8326 29.6005C82.7973 29.6005 80.6244 28.4523 79.6241 26.2065L96.1629 23.0658C96.5768 22.9814 96.8872 22.6099 96.8527 22.2047C96.4561 15.3491 91.1961 11.381 84.8151 11.381C77.6236 11.381 72.3291 16.3116 72.3291 23.1503C72.3291 29.9383 77.5718 34.9195 85.6429 34.9195C89.4887 34.9195 92.5412 33.8557 94.6797 31.8294C95.0246 31.5086 95.0419 30.9852 94.7142 30.6474L92.2308 28.0133C91.9204 27.6925 91.4203 27.6587 91.0581 27.9289C89.6267 29.0433 88.0056 29.6005 85.8326 29.6005ZM84.8323 16.396C87.6434 16.396 89.6957 17.9664 90.3338 20.2966L78.986 22.4748C79.1067 18.608 81.4522 16.396 84.8323 16.396Z" fill="white"/>
<path d="M116.375 12.563V14.1334C114.685 12.2591 112.253 11.381 109.391 11.381C102.803 11.381 97.7324 15.9739 97.7324 23.1503C97.7324 30.3266 102.803 34.9195 109.391 34.9195C112.512 34.9195 114.978 33.9401 116.668 31.9476V33.7375C116.668 34.2103 117.048 34.5818 117.531 34.5818H122.273C122.756 34.5818 123.136 34.2103 123.136 33.7375V12.563C123.136 12.0902 122.756 11.7187 122.273 11.7187H117.237C116.772 11.7187 116.375 12.1071 116.375 12.563ZM110.563 29.4655C107.183 29.4655 104.579 27.0846 104.579 23.1334C104.579 19.1822 107.183 16.8013 110.563 16.8013C113.909 16.8013 116.513 19.1822 116.513 23.1334C116.513 27.0846 113.909 29.4655 110.563 29.4655Z" fill="white"/>
<path d="M138.433 29.7186C138.261 29.2627 137.726 29.0432 137.278 29.2458C136.674 29.516 135.984 29.6511 135.294 29.6511C133.466 29.6511 132.432 28.5873 132.432 26.6285V17.3246H137.329C137.812 17.3246 138.192 16.9531 138.192 16.4803V13.0863C138.192 12.6135 137.812 12.242 137.329 12.242H132.449V7.51409C132.449 7.0413 132.069 6.66982 131.587 6.66982H126.551C126.068 6.66982 125.688 7.0413 125.688 7.51409V26.713C125.688 32.1501 128.862 34.9025 134.398 34.9025C136.139 34.9025 137.899 34.5647 139.226 33.8387C139.606 33.636 139.761 33.197 139.606 32.8086L138.433 29.7186Z" fill="white"/>
<path d="M145.09 8.54424C147.608 8.54424 149.298 6.92322 149.298 4.7281C149.298 2.68495 147.608 1.16525 145.09 1.16525C142.572 1.16525 140.882 2.78626 140.882 4.86318C140.882 6.94011 142.589 8.54424 145.09 8.54424ZM142.572 34.5649H147.625C148.108 34.5649 148.487 34.1934 148.487 33.7206V12.563C148.487 12.0902 148.108 11.7187 147.625 11.7187H142.589C142.106 11.7187 141.727 12.0902 141.727 12.563V33.7206C141.71 34.1934 142.106 34.5649 142.572 34.5649Z" fill="white"/>
<path d="M169.217 12.2421L162.767 27.2703L156.524 12.259C156.386 11.9382 156.076 11.7356 155.731 11.7356H150.626C150.005 11.7356 149.591 12.3434 149.833 12.9007L158.904 34.0583C159.042 34.3791 159.352 34.5817 159.697 34.5817H165.526C165.871 34.5817 166.182 34.3791 166.32 34.0583L175.443 12.9007C175.684 12.3434 175.27 11.7356 174.649 11.7356H170.01C169.665 11.7187 169.355 11.9213 169.217 12.2421Z" fill="white"/>
<path d="M187.204 34.9027C194.62 34.9027 200 30.0228 200 23.1334C200 16.261 194.62 11.3642 187.204 11.3642C179.788 11.3642 174.373 16.2441 174.373 23.1334C174.356 30.0228 179.788 34.9027 187.204 34.9027ZM187.204 29.4655C183.824 29.4655 181.22 27.0847 181.22 23.1334C181.22 19.1822 183.824 16.8014 187.204 16.8014C190.584 16.8014 193.154 19.1822 193.154 23.1334C193.154 27.0847 190.584 29.4655 187.204 29.4655Z" fill="white"/>
<path fill-rule="evenodd" clip-rule="evenodd" d="M11.4859 19.0807C9.96826 19.0807 8.72656 20.2964 8.72656 21.7824V42.2983C8.72656 43.7843 9.96826 45 11.4859 45C13.0035 45 14.2452 43.7843 14.2452 42.2983V21.7824C14.2452 20.2964 13.0208 19.0807 11.4859 19.0807Z" fill="white"/>
<path fill-rule="evenodd" clip-rule="evenodd" d="M22.4541 12.9006L13.7794 1.11445C13.2448 0.388368 12.3998 0 11.5375 0C11.5202 0 11.503 0 11.503 0C11.4857 0 11.4685 0 11.4512 0C10.5889 0 9.7439 0.388368 9.19203 1.11445L0.517375 12.9006C0.172458 13.3565 0 13.9137 0 14.4878V34.2101C0 35.6961 1.2417 36.9118 2.75933 36.9118C4.27697 36.9118 5.51867 35.6961 5.51867 34.2101V15.349L7.91584 12.0901H15.0556L17.4528 15.349V34.1932C17.4528 35.6792 18.6945 36.8949 20.2121 36.8949C21.7298 36.8949 22.9715 35.6792 22.9715 34.1932V14.4709C22.9887 13.9137 22.799 13.3565 22.4541 12.9006Z" fill="white"/>
</svg>
