<svg width="34" height="34" viewBox="0 0 34 34" fill="none" xmlns="http://www.w3.org/2000/svg">
<path d="M15.5 12.5H21.5C21.8978 12.5 22.2794 12.342 22.5607 12.0607C22.842 11.7794 23 11.3978 23 11C23 10.6022 22.842 10.2206 22.5607 9.93934C22.2794 9.65804 21.8978 9.5 21.5 9.5H18.5V8C18.5 7.60218 18.342 7.22065 18.0607 6.93934C17.7794 6.65804 17.3978 6.5 17 6.5C16.6022 6.5 16.2207 6.65804 15.9393 6.93934C15.658 7.22065 15.5 7.60218 15.5 8V9.5C14.3065 9.5 13.1619 9.97411 12.318 10.818C11.4741 11.6619 11 12.8065 11 14C11 15.1935 11.4741 16.3381 12.318 17.182C13.1619 18.0259 14.3065 18.5 15.5 18.5H18.5C18.8978 18.5 19.2794 18.658 19.5607 18.9393C19.842 19.2206 20 19.6022 20 20C20 20.3978 19.842 20.7794 19.5607 21.0607C19.2794 21.342 18.8978 21.5 18.5 21.5H12.5C12.1022 21.5 11.7207 21.658 11.4393 21.9393C11.158 22.2206 11 22.6022 11 23C11 23.3978 11.158 23.7794 11.4393 24.0607C11.7207 24.342 12.1022 24.5 12.5 24.5H15.5V26C15.5 26.3978 15.658 26.7794 15.9393 27.0607C16.2207 27.342 16.6022 27.5 17 27.5C17.3978 27.5 17.7794 27.342 18.0607 27.0607C18.342 26.7794 18.5 26.3978 18.5 26V24.5C19.6935 24.5 20.8381 24.0259 21.682 23.182C22.5259 22.3381 23 21.1935 23 20C23 18.8065 22.5259 17.6619 21.682 16.818C20.8381 15.9741 19.6935 15.5 18.5 15.5H15.5C15.1022 15.5 14.7207 15.342 14.4393 15.0607C14.158 14.7794 14 14.3978 14 14C14 13.6022 14.158 13.2206 14.4393 12.9393C14.7207 12.658 15.1022 12.5 15.5 12.5ZM17 0.5C13.7366 0.5 10.5465 1.46771 7.8331 3.28075C5.11969 5.09379 3.00484 7.67074 1.756 10.6857C0.507149 13.7007 0.180394 17.0183 0.81705 20.219C1.45371 23.4197 3.02518 26.3597 5.33275 28.6673C7.64031 30.9748 10.5803 32.5463 13.781 33.183C16.9817 33.8196 20.2993 33.4929 23.3143 32.244C26.3293 30.9952 28.9062 28.8803 30.7193 26.1669C32.5323 23.4535 33.5 20.2634 33.5 17C33.5 12.6239 31.7616 8.42709 28.6673 5.33274C25.5729 2.23839 21.3761 0.5 17 0.5ZM17 30.5C14.33 30.5 11.7199 29.7082 9.49981 28.2248C7.27975 26.7414 5.54942 24.633 4.52763 22.1662C3.50585 19.6994 3.23851 16.985 3.75941 14.3663C4.28031 11.7475 5.56606 9.34207 7.45407 7.45406C9.34207 5.56605 11.7475 4.2803 14.3663 3.7594C16.985 3.2385 19.6994 3.50584 22.1662 4.52763C24.633 5.54941 26.7414 7.27974 28.2248 9.4998C29.7082 11.7199 30.5 14.33 30.5 17C30.5 20.5804 29.0777 24.0142 26.5459 26.5459C24.0142 29.0777 20.5804 30.5 17 30.5Z" fill="#7EE8FF"/>
</svg>
