<svg width="24" height="25" viewBox="0 0 24 25" fill="none" xmlns="http://www.w3.org/2000/svg">
<circle cx="12" cy="12.3105" r="12" fill="#FF4343"/>
<path fill-rule="evenodd" clip-rule="evenodd" d="M10.2135 16.0741C9.46687 17.1407 6.53353 18.9007 7.97353 20.1807C9.14686 21.2474 10.4269 19.3807 11.9735 17.8874C12.5069 18.3674 13.1469 19.0074 13.6802 19.5407C14.3202 20.1807 15.1735 20.9807 15.9735 20.1274C17.2002 18.9541 15.2269 17.6207 13.7335 16.0741C14.1069 15.8074 17.3602 15.1674 16.4535 13.4607C15.3869 11.4341 13.8402 14.7941 10.1069 13.4607C9.14686 13.0874 8.5602 12.4474 7.70686 13.0341C7.01353 13.5141 7.06686 14.5274 7.65353 15.0074C8.29353 15.4341 9.5202 15.8607 10.2135 16.0741ZM12.8269 4.39407C10.8002 3.9674 8.34687 5.19407 7.86687 7.6474C6.90687 13.1407 15.1735 14.6341 16.1335 9.14073C16.4535 7.1674 15.2269 4.87407 12.8269 4.39407ZM11.9202 6.79407C9.68019 6.90073 9.73353 10.1541 12.0269 10.2074C14.2669 10.2607 14.3202 6.6874 11.9202 6.79407Z" fill="white"/>
</svg>
