<svg width="64" height="64" viewBox="0 0 64 64" fill="none" xmlns="http://www.w3.org/2000/svg">
<path d="M64 64H54V21H56V62H62V21H64V64Z" fill="#7EE8FF"/>
<path d="M60 21H58V63H60V21Z" fill="#7EE8FF"/>
<path d="M10 64H0V0H10V64ZM2 62H8V2H2V62Z" fill="#7EE8FF"/>
<path d="M20 61H14V0H20V61ZM16 59H18V2H16V59Z" fill="#7EE8FF"/>
<path d="M18 60H16V64H18V60Z" fill="#7EE8FF"/>
<path d="M19 54H15V56H19V54Z" fill="#7EE8FF"/>
<path d="M19 50H15V52H19V50Z" fill="#7EE8FF"/>
<path d="M19 46H15V48H19V46Z" fill="#7EE8FF"/>
<path d="M19 6H15V8H19V6Z" fill="#7EE8FF"/>
<path d="M6 58H4V60H6V58Z" fill="#7EE8FF"/>
<path d="M9 48H6V50H9V48Z" fill="#7EE8FF"/>
<path d="M9 54H6V56H9V54Z" fill="#7EE8FF"/>
<path d="M9 42H6V44H9V42Z" fill="#7EE8FF"/>
<path d="M9 36H6V38H9V36Z" fill="#7EE8FF"/>
<path d="M9 30H6V32H9V30Z" fill="#7EE8FF"/>
<path d="M9 24H6V26H9V24Z" fill="#7EE8FF"/>
<path d="M9 18H6V20H9V18Z" fill="#7EE8FF"/>
<path d="M9 12H6V14H9V12Z" fill="#7EE8FF"/>
<path d="M9 6H6V8H9V6Z" fill="#7EE8FF"/>
<path d="M30 6H24V0H30V6ZM26 4H28V2H26V4Z" fill="#7EE8FF"/>
<path d="M50 6H44V0H50V6ZM46 4H48V2H46V4Z" fill="#7EE8FF"/>
<path d="M30 26H24V20H30V26ZM26 24H28V22H26V24Z" fill="#7EE8FF"/>
<path d="M50 26H44V20H50V26ZM46 24H48V22H46V24Z" fill="#7EE8FF"/>
<path d="M34 2H32V4H34V2Z" fill="#7EE8FF"/>
<path d="M38 2H36V4H38V2Z" fill="#7EE8FF"/>
<path d="M42 2H40V4H42V2Z" fill="#7EE8FF"/>
<path d="M34 22H32V24H34V22Z" fill="#7EE8FF"/>
<path d="M38 22H36V24H38V22Z" fill="#7EE8FF"/>
<path d="M42 22H40V24H42V22Z" fill="#7EE8FF"/>
<path d="M28 8H26V10H28V8Z" fill="#7EE8FF"/>
<path d="M28 12H26V14H28V12Z" fill="#7EE8FF"/>
<path d="M28 16H26V18H28V16Z" fill="#7EE8FF"/>
<path d="M48 8H46V10H48V8Z" fill="#7EE8FF"/>
<path d="M48 12H46V14H48V12Z" fill="#7EE8FF"/>
<path d="M48 16H46V18H48V16Z" fill="#7EE8FF"/>
<path d="M37 20C33.14 20 30 16.86 30 13C30 9.14 33.14 6 37 6C40.86 6 44 9.14 44 13C44 16.86 40.86 20 37 20ZM37 8C34.24 8 32 10.24 32 13C32 15.76 34.24 18 37 18C39.76 18 42 15.76 42 13C42 10.24 39.76 8 37 8Z" fill="#7EE8FF"/>
<path d="M64 22H54L54.04 12.73L56 5.86V3H62V5.86L64 13V22ZM56 20H62V13.14L60 6V5H58L57.96 6.27L56 13.14V20Z" fill="#7EE8FF"/>
<path d="M60 0H58V4H60V0Z" fill="#7EE8FF"/>
<path d="M63 12H55V14H63V12Z" fill="#7EE8FF"/>
<path d="M32 45H30V34C30 32.9 29.1 32 28 32C26.9 32 26 32.9 26 34V45H24V34C24 31.79 25.79 30 28 30C30.21 30 32 31.79 32 34V45Z" fill="#7EE8FF"/>
<path d="M33 44H23V46H33V44Z" fill="#7EE8FF"/>
<path d="M27 45H25V64H27V45Z" fill="#7EE8FF"/>
<path d="M31 45H29V64H31V45Z" fill="#7EE8FF"/>
<path d="M47 64H39C37.35 64 36 62.65 36 61V33C36 31.35 37.35 30 39 30H47C48.65 30 50 31.35 50 33V61C50 62.65 48.65 64 47 64ZM39 32C38.45 32 38 32.45 38 33V61C38 61.55 38.45 62 39 62H47C47.55 62 48 61.55 48 61V33C48 32.45 47.55 32 47 32H39Z" fill="#7EE8FF"/>
<path d="M49 46H37V48H49V46Z" fill="#7EE8FF"/>
</svg>
