<svg width="64" height="64" viewBox="0 0 64 64" fill="none" xmlns="http://www.w3.org/2000/svg">
<path d="M34 46H4C1.79 46 0 44.21 0 42V8C0 5.79 1.79 4 4 4H48C50.21 4 52 5.79 52 8V16H50V8C50 6.9 49.1 6 48 6H4C2.9 6 2 6.9 2 8V42C2 43.1 2.9 44 4 44H34V46Z" fill="#7EE8FF"/>
<path d="M32 45H30V55H32V45Z" fill="#7EE8FF"/>
<path d="M22 45H20V55H22V45Z" fill="#7EE8FF"/>
<path d="M16 54H0V56H16V54Z" fill="#7EE8FF"/>
<path d="M34 36H1V38H34V36Z" fill="#7EE8FF"/>
<path d="M27 40H25V42H27V40Z" fill="#7EE8FF"/>
<path d="M19 22H6V24H19V22Z" fill="#7EE8FF"/>
<path d="M34 22H21V24H34V22Z" fill="#7EE8FF"/>
<path d="M19 26H6V28H19V26Z" fill="#7EE8FF"/>
<path d="M34 26H21V28H34V26Z" fill="#7EE8FF"/>
<path d="M19 30H6V32H19V30Z" fill="#7EE8FF"/>
<path d="M34 30H21V32H34V30Z" fill="#7EE8FF"/>
<path d="M61 56H39C37.35 56 36 54.65 36 53V21C36 19.35 37.35 18 39 18H61C62.65 18 64 19.35 64 21V53C64 54.65 62.65 56 61 56ZM39 20C38.45 20 38 20.45 38 21V53C38 53.55 38.45 54 39 54H61C61.55 54 62 53.55 62 53V21C62 20.45 61.55 20 61 20H39Z" fill="#7EE8FF"/>
<path d="M52 50H48V52H52V50Z" fill="#7EE8FF"/>
<path d="M58 30H42V24H58V30ZM44 28H56V26H44V28Z" fill="#7EE8FF"/>
<path d="M58 32H42V34H58V32Z" fill="#7EE8FF"/>
<path d="M58 36H42V38H58V36Z" fill="#7EE8FF"/>
<path d="M58 40H42V42H58V40Z" fill="#7EE8FF"/>
<path d="M58 44H42V46H58V44Z" fill="#7EE8FF"/>
<path d="M34 20H6V10H46V16H44V12H8V18H34V20Z" fill="#7EE8FF"/>
<path d="M64 58H0V60H64V58Z" fill="#7EE8FF"/>
<path d="M10 59H8V64H10V59Z" fill="#7EE8FF"/>
<path d="M16 59H14V64H16V59Z" fill="#7EE8FF"/>
<path d="M50 59H48V64H50V59Z" fill="#7EE8FF"/>
<path d="M56 59H54V64H56V59Z" fill="#7EE8FF"/>
<path d="M34 54H18V56H34V54Z" fill="#7EE8FF"/>
<path d="M12 14H10V16H12V14Z" fill="#7EE8FF"/>
<path d="M16 14H14V16H16V14Z" fill="#7EE8FF"/>
<path d="M20 14H18V16H20V14Z" fill="#7EE8FF"/>
<path d="M24 14H22V16H24V14Z" fill="#7EE8FF"/>
<path d="M28 14H26V16H28V14Z" fill="#7EE8FF"/>
</svg>
