<svg width="64" height="65" viewBox="0 0 64 65" fill="none" xmlns="http://www.w3.org/2000/svg">
<path d="M8 38.7012C7.87 38.7012 7.74 38.6812 7.62 38.6212C7.24 38.4712 7 38.1012 7 37.7012V30.7012H3C1.35 30.7012 0 29.3512 0 27.7012V5.70117C0 4.05117 1.35 2.70117 3 2.70117H51C52.65 2.70117 54 4.05117 54 5.70117V27.7012C54 29.3512 52.65 30.7012 51 30.7012H16.41L8.7 38.4112C8.52 38.6012 8.26 38.7012 8 38.7012ZM3 4.70117C2.45 4.70117 2 5.15117 2 5.70117V27.7012C2 28.2512 2.45 28.7012 3 28.7012H8C8.55 28.7012 9 29.1512 9 29.7012V35.2912L15.29 29.0012C15.48 28.8112 15.73 28.7012 16 28.7012H51C51.55 28.7012 52 28.2512 52 27.7012V5.70117C52 5.15117 51.55 4.70117 51 4.70117H3Z" fill="#7EE8FF"/>
<path d="M51 62.7012H10C8.35 62.7012 7 61.3512 7 59.7012V40.7012H9V59.7012C9 60.2512 9.45 60.7012 10 60.7012H51C51.55 60.7012 52 60.2512 52 59.7012V49.7012C52 49.4312 52.11 49.1812 52.29 48.9912L60.59 40.7012H53C52.45 40.7012 52 40.2512 52 39.7012V35.7012C52 35.1512 51.55 34.7012 51 34.7012H17V32.7012H51C52.65 32.7012 54 34.0512 54 35.7012V38.7012H63C63.4 38.7012 63.77 38.9412 63.92 39.3212C64.07 39.6912 63.99 40.1212 63.7 40.4112L54 50.1112V59.7012C54 61.3512 52.65 62.7012 51 62.7012Z" fill="#7EE8FF"/>
<path d="M50 14.7012H4V16.7012H50V14.7012Z" fill="#7EE8FF"/>
<path d="M50 18.7012H4V20.7012H50V18.7012Z" fill="#7EE8FF"/>
<path d="M50 50.7012H11V52.7012H50V50.7012Z" fill="#7EE8FF"/>
<path d="M40 54.7012H11V56.7012H40V54.7012Z" fill="#7EE8FF"/>
<path d="M20 22.7012H4V24.7012H20V22.7012Z" fill="#7EE8FF"/>
<path d="M28 8.70117H26V10.7012H28V8.70117Z" fill="#7EE8FF"/>
<path d="M32 8.70117H30V10.7012H32V8.70117Z" fill="#7EE8FF"/>
<path d="M24 8.70117H22V10.7012H24V8.70117Z" fill="#7EE8FF"/>
<path d="M23 38.7012H21V40.7012H23V38.7012Z" fill="#7EE8FF"/>
<path d="M27 38.7012H25V40.7012H27V38.7012Z" fill="#7EE8FF"/>
<path d="M19 38.7012H17V40.7012H19V38.7012Z" fill="#7EE8FF"/>
<path d="M49 48.7012H12C11.45 48.7012 11 48.2512 11 47.7012V43.7012C11 43.1512 11.45 42.7012 12 42.7012H49C49.55 42.7012 50 43.1512 50 43.7012V47.7012C50 48.2512 49.55 48.7012 49 48.7012ZM13 46.7012H48V44.7012H13V46.7012Z" fill="#7EE8FF"/>
</svg>
