<svg width="24" height="25" viewBox="0 0 24 25" fill="none" xmlns="http://www.w3.org/2000/svg">
<circle cx="12" cy="12.3105" r="12" fill="#FE7757"/>
<path d="M7.58571 18.3101C8.48571 18.3101 9.17143 17.5815 9.17143 16.7244C9.17143 15.8244 8.44286 15.1387 7.58571 15.1387C6.68571 15.1387 6 15.8672 6 16.7244C6 17.5815 6.72857 18.3101 7.58571 18.3101Z" fill="white"/>
<path d="M11.6143 18.3114H13.9286C13.9286 13.94 10.3714 10.3828 6 10.3828V12.6971C7.5 12.6971 8.91429 13.2971 9.98571 14.3257C11.0143 15.3971 11.6143 16.8114 11.6143 18.3114Z" fill="white"/>
<path d="M15.6857 18.3105H18C18 11.7105 12.6 6.31055 6 6.31055V8.62483C11.3571 8.62483 15.6857 12.9534 15.6857 18.3105Z" fill="white"/>
</svg>
