<svg width="41" height="40" viewBox="0 0 41 40" fill="none" xmlns="http://www.w3.org/2000/svg">
<path d="M40.0009 15.3393C39.8746 14.9735 39.6449 14.6522 39.3396 14.4143C39.0343 14.1765 38.6665 14.0323 38.2809 13.9993L26.9009 12.3393L21.8009 1.99931C21.6372 1.66117 21.3815 1.376 21.0631 1.17646C20.7448 0.976924 20.3766 0.871094 20.0009 0.871094C19.6252 0.871094 19.2571 0.976924 18.9388 1.17646C18.6204 1.376 18.3647 1.66117 18.2009 1.99931L13.1009 12.3193L1.72093 13.9993C1.35078 14.0519 1.00278 14.2072 0.716432 14.4476C0.430084 14.688 0.216851 15.0039 0.100931 15.3593C-0.00517862 15.7067 -0.0147007 16.0763 0.0733869 16.4287C0.161475 16.781 0.343847 17.1028 0.600931 17.3593L8.86093 25.3593L6.86093 36.7193C6.78018 37.0962 6.81004 37.4883 6.9469 37.8486C7.08376 38.2089 7.32181 38.5219 7.63239 38.7501C7.94298 38.9783 8.31287 39.1119 8.69759 39.1348C9.0823 39.1577 9.46545 39.069 9.80093 38.8793L20.0009 33.5393L30.2009 38.8793C30.4816 39.0377 30.7986 39.1204 31.1209 39.1193C31.5446 39.1208 31.9578 38.9878 32.3009 38.7393C32.6112 38.517 32.8514 38.2106 32.9932 37.8562C33.1349 37.5018 33.1723 37.1143 33.1009 36.7393L31.1009 25.3793L39.3609 17.3793C39.6497 17.1347 39.8631 16.8131 39.9764 16.452C40.0897 16.0909 40.0982 15.7051 40.0009 15.3393ZM27.7009 23.3393C27.4694 23.5641 27.2958 23.8416 27.1948 24.1481C27.0938 24.4546 27.0685 24.7809 27.1209 25.0993L28.5609 33.4993L21.0409 29.4993C20.7487 29.3547 20.427 29.2795 20.1009 29.2795C19.7749 29.2795 19.4532 29.3547 19.1609 29.4993L11.6409 33.4993L13.0809 25.0993C13.1334 24.7809 13.1081 24.4546 13.0071 24.1481C12.9061 23.8416 12.7324 23.5641 12.5009 23.3393L6.50093 17.3393L14.9209 16.1193C15.2449 16.0742 15.5529 15.9504 15.8179 15.7586C16.0829 15.5668 16.2968 15.313 16.4409 15.0193L20.0009 7.39931L23.7609 15.0393C23.905 15.333 24.1189 15.5868 24.3839 15.7786C24.6489 15.9704 24.9569 16.0942 25.2809 16.1393L33.7009 17.3593L27.7009 23.3393Z" fill="#7EE8FF"/>
</svg>
