<svg width="28" height="29" viewBox="0 0 28 29" fill="none" xmlns="http://www.w3.org/2000/svg">
<path d="M3.76753 11.45C3.523 11.6956 3.37106 12.0183 3.33752 12.3632C3.30399 12.7082 3.39094 13.0541 3.58359 13.3422C3.77624 13.6303 4.06271 13.8428 4.3943 13.9435C4.72589 14.0443 5.08216 14.0272 5.40253 13.895C5.58483 13.8135 5.75216 13.7019 5.89753 13.565C6.03246 13.4268 6.13942 13.2638 6.21253 13.085C6.29828 12.9022 6.33941 12.7017 6.33253 12.5C6.33088 12.1065 6.17465 11.7294 5.89753 11.45C5.75809 11.3094 5.59219 11.1978 5.4094 11.1217C5.22661 11.0455 5.03055 11.0063 4.83253 11.0063C4.63452 11.0063 4.43846 11.0455 4.25567 11.1217C4.07288 11.1978 3.90698 11.3094 3.76753 11.45ZM4.83253 3.5C5.23036 3.5 5.61189 3.65803 5.89319 3.93934C6.1745 4.22064 6.33253 4.60217 6.33253 5C6.33253 5.39782 6.1745 5.77935 5.89319 6.06066C5.61189 6.34196 5.23036 6.5 4.83253 6.5C4.43471 6.5 4.05318 6.65803 3.77187 6.93934C3.49057 7.22064 3.33253 7.60217 3.33253 8C3.33253 8.39782 3.49057 8.77936 3.77187 9.06066C4.05318 9.34196 4.43471 9.5 4.83253 9.5C5.62233 9.49949 6.39808 9.29113 7.08184 8.89585C7.76559 8.50057 8.33328 7.9323 8.72784 7.24813C9.12241 6.56395 9.32996 5.78799 9.32965 4.9982C9.32933 4.2084 9.12116 3.4326 8.72604 2.74875C8.33093 2.0649 7.76279 1.49708 7.07871 1.10234C6.39464 0.707613 5.61872 0.499874 4.82893 0.5C4.03913 0.500127 3.26329 0.708114 2.57934 1.10307C1.89539 1.49802 1.32743 2.06602 0.932535 2.75C0.833356 2.9212 0.769027 3.11033 0.743252 3.3065C0.717477 3.50267 0.730765 3.70199 0.782352 3.893C0.833938 4.08401 0.922804 4.26293 1.04383 4.41945C1.16486 4.57597 1.31565 4.707 1.48753 4.805C1.83196 5.00056 2.23975 5.05196 2.62193 4.94798C3.00411 4.84401 3.32966 4.5931 3.52753 4.25C3.65969 4.02109 3.84999 3.83117 4.07915 3.69947C4.30832 3.56776 4.56822 3.49895 4.83253 3.5ZM22.8325 5H13.8325C13.4347 5 13.0532 5.15803 12.7719 5.43934C12.4906 5.72064 12.3325 6.10217 12.3325 6.5C12.3325 6.89782 12.4906 7.27935 12.7719 7.56066C13.0532 7.84196 13.4347 8 13.8325 8H22.8325C23.2304 8 23.6119 8.15803 23.8932 8.43934C24.1745 8.72064 24.3325 9.10217 24.3325 9.5V24.08L21.9775 21.905C21.7009 21.646 21.3365 21.5013 20.9575 21.5H7.83253C7.43471 21.5 7.05318 21.342 6.77187 21.0607C6.49057 20.7794 6.33253 20.3978 6.33253 20V18.5C6.33253 18.1022 6.1745 17.7206 5.89319 17.4393C5.61189 17.158 5.23036 17 4.83253 17C4.43471 17 4.05318 17.158 3.77187 17.4393C3.49057 17.7206 3.33253 18.1022 3.33253 18.5V20C3.33253 21.1935 3.80664 22.3381 4.65055 23.182C5.49447 24.0259 6.63906 24.5 7.83253 24.5H20.3725L24.8725 28.595C25.1339 28.8404 25.4744 28.984 25.8325 29C26.0383 28.9978 26.2418 28.9571 26.4325 28.88C26.7009 28.7629 26.929 28.5698 27.089 28.3246C27.2489 28.0794 27.3336 27.7928 27.3325 27.5V9.5C27.3325 8.30653 26.8584 7.16193 26.0145 6.31802C25.1706 5.4741 24.026 5 22.8325 5Z" fill="#7EE8FF"/>
</svg>
