<svg width="25" height="30" viewBox="0 0 25 30" fill="none" xmlns="http://www.w3.org/2000/svg">
<path d="M10.5673 5.445C10.1694 5.51661 9.81636 5.74332 9.58569 6.07526C9.35502 6.4072 9.26566 6.81718 9.33727 7.215C9.40888 7.61282 9.63559 7.96591 9.96753 8.19658C10.2995 8.42725 10.7094 8.51661 11.1073 8.445C11.6028 8.35939 12.1044 8.31424 12.6073 8.31C14.9942 8.31 17.2834 9.25821 18.9712 10.946C20.6591 12.6339 21.6073 14.9231 21.6073 17.31C21.603 17.8128 21.5579 18.3145 21.4723 18.81C21.4021 19.1997 21.4889 19.6013 21.7137 19.9273C21.9385 20.2532 22.2831 20.4771 22.6723 20.55H22.9423C23.2975 20.5558 23.6432 20.4353 23.9179 20.2101C24.1925 19.9849 24.3784 19.6694 24.4423 19.32C24.5815 18.6385 24.6569 17.9455 24.6673 17.25C24.6604 14.5797 23.7631 11.9879 22.1173 9.885L23.4823 8.535C23.7647 8.25254 23.9234 7.86945 23.9234 7.47C23.9234 7.07055 23.7647 6.68746 23.4823 6.405C23.1998 6.12254 22.8167 5.96386 22.4173 5.96386C22.0178 5.96386 21.6347 6.12254 21.3523 6.405L20.0023 7.77C17.9036 6.14125 15.3238 5.25494 12.6673 5.25C11.9627 5.24865 11.2596 5.31394 10.5673 5.445ZM9.66727 3.75H15.6673C16.0651 3.75 16.4466 3.59196 16.7279 3.31066C17.0092 3.02936 17.1673 2.64782 17.1673 2.25C17.1673 1.85218 17.0092 1.47064 16.7279 1.18934C16.4466 0.908035 16.0651 0.75 15.6673 0.75H9.66727C9.26945 0.75 8.88791 0.908035 8.60661 1.18934C8.32531 1.47064 8.16727 1.85218 8.16727 2.25C8.16727 2.64782 8.32531 3.02936 8.60661 3.31066C8.88791 3.59196 9.26945 3.75 9.66727 3.75ZM14.9023 17.37C14.9023 17.37 14.9023 17.295 14.9023 17.25C14.9023 17.205 14.9023 17.175 14.9023 17.13L16.9123 15.135C17.0521 14.9951 17.1631 14.8291 17.2388 14.6464C17.3144 14.4636 17.3534 14.2678 17.3534 14.07C17.3534 13.8722 17.3144 13.6764 17.2388 13.4936C17.1631 13.3109 17.0521 13.1449 16.9123 13.005C16.7724 12.8651 16.6064 12.7542 16.4236 12.6785C16.2409 12.6028 16.0451 12.5639 15.8473 12.5639C15.6495 12.5639 15.4536 12.6028 15.2709 12.6785C15.0882 12.7542 14.9221 12.8651 14.7823 13.005L12.7873 15H12.5473L3.23227 5.685C2.94981 5.40254 2.56672 5.24386 2.16727 5.24386C1.76782 5.24386 1.38473 5.40254 1.10227 5.685C0.819814 5.96746 0.661133 6.35055 0.661133 6.75C0.661133 7.14945 0.819814 7.53254 1.10227 7.815L1.82227 8.535L3.18727 9.9C1.40747 12.2094 0.529363 15.0878 0.716995 17.9974C0.904627 20.907 2.14517 23.6488 4.20684 25.7104C6.26851 27.7721 9.01028 29.0126 11.9199 29.2003C14.8295 29.3879 17.7079 28.5098 20.0173 26.73L22.1023 28.815C22.2417 28.9556 22.4076 29.0672 22.5904 29.1433C22.7732 29.2195 22.9693 29.2587 23.1673 29.2587C23.3653 29.2587 23.5613 29.2195 23.7441 29.1433C23.9269 29.0672 24.0928 28.9556 24.2323 28.815C24.3729 28.6756 24.4845 28.5097 24.5606 28.3269C24.6368 28.1441 24.676 27.948 24.676 27.75C24.676 27.552 24.6368 27.3559 24.5606 27.1731C24.4845 26.9903 24.3729 26.8244 24.2323 26.685L14.9023 17.37ZM12.6673 26.25C11.0096 26.2546 9.38277 25.8012 7.96635 24.94C6.54993 24.0787 5.3989 22.8429 4.64022 21.369C3.88154 19.8951 3.54468 18.2403 3.66679 16.587C3.78891 14.9338 4.36526 13.3465 5.33227 12L10.4323 17.085C10.4323 17.085 10.4323 17.16 10.4323 17.205C10.4263 17.503 10.4796 17.7992 10.5891 18.0764C10.6985 18.3536 10.862 18.6063 11.0699 18.8198C11.2778 19.0333 11.5261 19.2034 11.8003 19.3202C12.0746 19.437 12.3692 19.4981 12.6673 19.5H12.7873L17.8723 24.6C16.35 25.6757 14.5313 26.2523 12.6673 26.25Z" fill="#7EE8FF"/>
</svg>
