<svg width="24" height="25" viewBox="0 0 24 25" fill="none" xmlns="http://www.w3.org/2000/svg">
<circle cx="12" cy="12.3105" r="12" fill="#6996C7"/>
<path d="M16.8073 14.123C15.5806 13.003 15.7406 13.163 17.2339 11.1896C18.1406 9.96297 18.5139 9.26964 18.4073 8.94964C18.3006 8.62964 17.6073 8.7363 17.6073 8.7363H15.3673C15.3673 8.7363 15.2073 8.7363 15.1006 8.78964C14.9939 8.84297 14.8873 9.00297 14.8873 9.00297C14.8873 9.00297 14.5139 9.96297 14.0339 10.7096C13.0206 12.4163 12.6473 12.4696 12.4873 12.363C12.1139 12.0963 12.2206 11.403 12.2206 10.8696C12.2206 9.26963 12.4873 8.4163 11.7406 8.2563C11.5273 8.20297 11.3139 8.04297 10.7806 8.04297H10.0339C9.50061 8.04297 9.07395 8.20297 8.80728 8.36297C8.54061 8.46964 8.32728 8.84297 8.48728 8.84297C8.64728 8.84297 8.96728 8.94964 9.12728 9.2163C9.34062 9.5363 9.34061 10.2296 9.34061 10.2296C9.34061 10.2296 9.44728 12.1496 9.02062 12.363C8.70062 12.523 8.32728 12.203 7.42062 10.6563C6.94062 9.8563 6.62062 9.00297 6.62062 9.00297C6.62062 9.00297 6.56728 8.84297 6.46062 8.7363C6.30062 8.62963 6.14061 8.5763 6.14061 8.5763H4.00728C4.00728 8.5763 3.68728 8.5763 3.58061 8.7363C3.47394 8.84297 3.58061 9.10964 3.58061 9.10964C3.58061 9.10964 5.23395 12.9496 7.15395 14.923C8.91395 16.7363 10.8339 16.523 10.8339 16.523H11.7406C11.7406 16.523 12.0073 16.523 12.1673 16.4163C12.2739 16.2563 12.2739 16.0963 12.2739 16.0963C12.2739 16.0963 12.2739 14.923 12.8073 14.7096C13.3406 14.5496 14.0873 15.8296 14.7806 16.363C15.3673 16.7363 15.7939 16.683 15.7939 16.683L17.7673 16.6296C17.7673 16.6296 18.8339 16.5763 18.3006 15.7763C18.2473 15.7763 17.9806 15.243 16.8073 14.123Z" fill="white"/>
</svg>
