<svg width="24" height="25" viewBox="0 0 24 25" fill="none" xmlns="http://www.w3.org/2000/svg">
<circle cx="12" cy="12.3105" r="12" fill="#FF0F00"/>
<path d="M18.85 9.46055C18.85 9.46055 18.7 8.46055 18.3 8.06055C17.75 7.51055 17.15 7.51055 16.9 7.46055C14.95 7.31055 12 7.31055 12 7.31055C12 7.31055 9.05 7.31055 7.1 7.46055C6.85 7.51055 6.25 7.51055 5.7 8.06055C5.3 8.51055 5.15 9.46055 5.15 9.46055C5.15 9.46055 5 10.6105 5 11.7605V12.8605C5 14.0105 5.15 15.1605 5.15 15.1605C5.15 15.1605 5.3 16.1605 5.7 16.5605C6.25 17.1105 6.95 17.1105 7.25 17.1605C8.35 17.2605 12 17.3105 12 17.3105C12 17.3105 14.95 17.3105 16.9 17.1605C17.15 17.1105 17.75 17.1105 18.3 16.5605C18.7 16.1105 18.85 15.1605 18.85 15.1605C18.85 15.1605 19 14.0105 19 12.8605V11.7605C19 10.6105 18.85 9.46055 18.85 9.46055ZM10.55 14.1605V10.1605L14.35 12.1605L10.55 14.1605Z" fill="white"/>
</svg>
